.
..............................Site Info...........................

 -   http://www.scenetime.com  *_*   

SceneTime is going to Close sign up on march/1, hurry up! get in before the doors are closed.

     We care to share . Join us on  http://www.scenetime.com 

    Be the first to get new release at  http://www.scenetime.com

        Seed back for speed


...................................NFO:.................................................[align=center]
        [/align]

[size=3][color=#009999]



   Underworld Awakening 2012 R5.XVID.AC3.V2.Line.ReadNfo  - Xtreme Encode



[/color][/size]


[size=3]
[color=#CC9933]General


Complete name                            : Underworld Awakening 2012 R5.XVID.AC3.V2.Line.ReadNfo  - Xtreme Encode.avi
Format                                   : AVI
Format/Info                              : Audio Video Interleave
File size                                : 1.31 GiB
Duration                                 : 1h 25mn
Overall bit rate                         : 2 197 Kbps[/color][/size]




[size=2][color=#669900]
Video


ID                                       : 0
Format                                   : MPEG-4 Visual
Format profile                           : Advanced Simple@L5
Format settings, BVOP                    : 1
Format settings, QPel                    : No
Format settings, GMC                     : No warppoints
Format settings, Matrix                  : Default (H.263)
Codec ID                                 : XVID
Codec ID/Hint                            : XviD
Duration                                 : 1h 25mn
Bit rate                                 : 1 869 Kbps
Width                                    : 720 pixels
Height                                   : 304 pixels
Display aspect ratio                     : 2.35:1
Frame rate                               : 25.000 fps
Color space                              : YUV
Chroma subsampling                       : 4:2:0
Bit depth                                : 8 bits
Scan type                                : Progressive
Compression mode                         : Lossy
Bits/(Pixel*Frame)                       : 0.342
Stream size                              : 1.11 GiB (85%)[/color][/size]




[size=2][color=#009900]Audio


ID                                       : 1
Format                                   : AC-3
Format/Info                              : Audio Coding 3
Mode extension                           : CM (complete main)
Codec ID                                 : 2000
Duration                                 : 1h 25mn
Bit rate mode                            : Constant
Bit rate                                 : 320 Kbps
Channel(s)                               : 2 channels
Channel positions                        : Front: L R
Sampling rate                            : 44.1 KHz
Bit depth                                : 16 bits
Compression mode                         : Lossy
Stream size                              : 195 MiB (15%)
Alignment                                : Aligned on interleaves
Interleave, duration                     : 70 ms (1.74 video frames)
Interleave, preload duration             : 208 ms[/color][/size]





[size=3][color=#6699FF]
SOURCE

Video : DVD5
Audio : thanks bro :)



JUST A LITTLE MESS WITH THIS ADDES BIT OF CONTRAS 
RESIZED BIT TWEAKED BIT SHARPEN in 
SAT HUE and few othere things


OK HERE IT GOES THIS IS REAL NICE THE AUDIO IS SYNCED TO THE VIDEIO ENJOY

THIS IS FULL LINE AUDIO ENJOY :) :p :)[/color][/size]




[size=3][color=#0099CC]PLOT

When human forces discover the existence of the Vampire and Lycan clans, 
a war to eradicate both species commences. The vampire warrioress Selene leads 
the battle against humankind.


 [/color][/size]


[size=3][color=#CC6600]Genres: Action | Fantasy | Horror 


Directors: Mns Mrlind, Bjrn Stein

Writers: Len Wiseman (screenplay), John Hlavin (screenplay)

Stars: Kate Beckinsale, Michael Ealy and India Eisley [/color][/size]


[size=3][color=#0033FF]IMDB: http://www.imdb.com/title/tt1496025/[/color][/size]



[size=3][color=#996600]HOPE U ALL LIKE THIS IF SO PLS REP
   
IF U GOT ANYTHING TO OFFER JUST DROP ONE AT: Xtreme-Encode@hushmail.me  :)[/color][/size]



[size=3][color=#CC0000]
SCREENS:





[/color][/size]


[size=3][b][font=Times New Roman][color=#3366CC]
      GREETS:

IMAGiNE / ELEKTRI4KA / FLAWL3SS / DTRG
ViSiON / CRYS / BMB / MiSTERE / 26K
AMB / FYA / Jamie111 / VISUALiSE  
ILLUMINATI / Rx / REFiLL / BHRG
TO MY FRIENDS  AND ALL OTHER GROUPS  :)[/color][/font][/b][/size]